<?xml version="1.0"?>
<svg xmlns="http://www.w3.org/2000/svg" xmlns:xlink="http://www.w3.org/1999/xlink" xmlns:svgjs="http://svgjs.com/svgjs" version="1.1" width="512" height="512" x="0" y="0" viewBox="0 0 589 589.3354" style="enable-background:new 0 0 512 512" xml:space="preserve" class=""><g><path xmlns="http://www.w3.org/2000/svg" d="m503.324219 104.976562h-156.671875l156.671875 44.726563zm0 0" fill="#fe1e02" data-original="#000000" style="" class=""/><path xmlns="http://www.w3.org/2000/svg" d="m503.324219 504.886719v-294.226563l-85.722657 294.226563zm0 0" fill="#fe1e02" data-original="#000000" style="" class=""/><path xmlns="http://www.w3.org/2000/svg" d="m494.898438 168.066406-231.359376-67.265625-.160156-.128906v62.542969c0 17.253906-13.988281 31.242187-31.242187 31.242187-17.257813 0-31.242188-13.988281-31.242188-31.242187v-41.542969c0-5.519531 4.476563-9.996094 9.996094-9.996094 5.523437 0 10 4.476563 10 9.996094v41.542969c0 6.210937 5.03125 11.246094 11.246094 11.246094 6.210937 0 11.246093-5.035157 11.246093-11.246094v-68.347656l-38.492187-11.121094c.308594.023437.652344.042968.96875.042968 5.53125.003907 10.015625-4.464843 10.03125-9.996093v-42.945313c0-6.136718 5.421875-10.851562 11.558594-10.851562h4.222656c6.136719 0 11.710937 4.714844 11.710937 10.851562v64.015625l.457032.132813 19.539062 5.675781v-69.824219c0-17.160156-14.546875-30.847656-31.707031-30.847656h-4.222656c-17.15625 0-31.554688 13.6875-31.554688 30.847656v42.949219c-.023437 3.757813 2.078125 7.214844 5.433594 8.917969l-90.78125-26.257813-111.96875 384.433594 384.371094 111.609375zm0 0" fill="#fe1e02" data-original="#000000" style="" class=""/></g></svg>
