<?xml version="1.0"?>
<svg xmlns="http://www.w3.org/2000/svg" xmlns:xlink="http://www.w3.org/1999/xlink" xmlns:svgjs="http://svgjs.com/svgjs" version="1.1" width="512" height="512" x="0" y="0" viewBox="0 0 512 512" style="enable-background:new 0 0 512 512" xml:space="preserve"><g>
<g xmlns="http://www.w3.org/2000/svg">
	<g>
		<g>
			<path d="M309.333,266.667V224c0-5.885-4.792-10.667-10.667-10.667H288v64h10.667     C304.542,277.333,309.333,272.552,309.333,266.667z" fill="#fe1e02" data-original="#000000" style=""/>
			<path d="M224,224c0-5.885-4.792-10.667-10.667-10.667s-10.667,4.781-10.667,10.667v32H224V224z" fill="#fe1e02" data-original="#000000" style=""/>
			<path d="M469.333,64H42.667C19.146,64,0,83.135,0,106.667v298.667C0,428.865,19.146,448,42.667,448h426.667     C492.854,448,512,428.865,512,405.333V106.667C512,83.135,492.854,64,469.333,64z M266.667,202.667     c0-5.896,4.771-10.667,10.667-10.667h21.333c17.646,0,32,14.354,32,32v42.667c0,17.646-14.354,32-32,32h-21.333     c-5.896,0-10.667-4.771-10.667-10.667V202.667z M181.333,224c0-17.646,14.354-32,32-32c17.646,0,32,14.354,32,32v64     c0,5.896-4.771,10.667-10.667,10.667c-5.896,0-10.667-4.771-10.667-10.667v-10.667h-21.333V288     c0,5.896-4.771,10.667-10.667,10.667s-10.667-4.771-10.667-10.667V224z M458.667,405.333H114.055     C110.333,411.591,103.798,416,96,416s-14.333-4.409-18.055-10.667H53.333c-5.896,0-10.667-4.771-10.667-10.667     S47.438,384,53.333,384h24.612c3.721-6.258,10.257-10.667,18.055-10.667s14.333,4.409,18.055,10.667h344.612     c5.896,0,10.667,4.771,10.667,10.667S464.563,405.333,458.667,405.333z" fill="#fe1e02" data-original="#000000" style=""/>
		</g>
	</g>
</g>
<g xmlns="http://www.w3.org/2000/svg">
</g>
<g xmlns="http://www.w3.org/2000/svg">
</g>
<g xmlns="http://www.w3.org/2000/svg">
</g>
<g xmlns="http://www.w3.org/2000/svg">
</g>
<g xmlns="http://www.w3.org/2000/svg">
</g>
<g xmlns="http://www.w3.org/2000/svg">
</g>
<g xmlns="http://www.w3.org/2000/svg">
</g>
<g xmlns="http://www.w3.org/2000/svg">
</g>
<g xmlns="http://www.w3.org/2000/svg">
</g>
<g xmlns="http://www.w3.org/2000/svg">
</g>
<g xmlns="http://www.w3.org/2000/svg">
</g>
<g xmlns="http://www.w3.org/2000/svg">
</g>
<g xmlns="http://www.w3.org/2000/svg">
</g>
<g xmlns="http://www.w3.org/2000/svg">
</g>
<g xmlns="http://www.w3.org/2000/svg">
</g>
</g></svg>
