<?xml version="1.0"?>
<svg xmlns="http://www.w3.org/2000/svg" xmlns:xlink="http://www.w3.org/1999/xlink" xmlns:svgjs="http://svgjs.com/svgjs" version="1.1" width="512" height="512" x="0" y="0" viewBox="0 0 174.239 174.239" style="enable-background:new 0 0 512 512" xml:space="preserve" class=""><g>
<path xmlns="http://www.w3.org/2000/svg" d="M146.606,17.424H27.633C12.397,17.424,0,29.821,0,45.057v84.125c0,15.236,12.397,27.633,27.633,27.633h118.973  c15.236,0,27.633-12.397,27.633-27.633V45.057C174.239,29.821,161.842,17.424,146.606,17.424z M145.47,32.359L87.115,77.666  L28.76,32.359H145.47z M159.305,129.182c0,7.003-5.695,12.698-12.698,12.698H27.633c-7.003,0-12.698-5.695-12.698-12.698V45.057  c0-1.398,0.282-2.719,0.701-3.978l66.9,51.94c1.347,1.045,2.963,1.568,4.58,1.568s3.233-0.523,4.58-1.568l66.908-51.946  c0.42,1.26,0.702,2.584,0.702,3.984V129.182z" fill="#fe1e02" data-original="#000000" style="" class=""/>
<g xmlns="http://www.w3.org/2000/svg">
</g>
<g xmlns="http://www.w3.org/2000/svg">
</g>
<g xmlns="http://www.w3.org/2000/svg">
</g>
<g xmlns="http://www.w3.org/2000/svg">
</g>
<g xmlns="http://www.w3.org/2000/svg">
</g>
<g xmlns="http://www.w3.org/2000/svg">
</g>
<g xmlns="http://www.w3.org/2000/svg">
</g>
<g xmlns="http://www.w3.org/2000/svg">
</g>
<g xmlns="http://www.w3.org/2000/svg">
</g>
<g xmlns="http://www.w3.org/2000/svg">
</g>
<g xmlns="http://www.w3.org/2000/svg">
</g>
<g xmlns="http://www.w3.org/2000/svg">
</g>
<g xmlns="http://www.w3.org/2000/svg">
</g>
<g xmlns="http://www.w3.org/2000/svg">
</g>
<g xmlns="http://www.w3.org/2000/svg">
</g>
</g></svg>
