<?xml version="1.0"?>
<svg xmlns="http://www.w3.org/2000/svg" xmlns:xlink="http://www.w3.org/1999/xlink" xmlns:svgjs="http://svgjs.com/svgjs" version="1.1" width="512" height="512" x="0" y="0" viewBox="0 0 612 612" style="enable-background:new 0 0 512 512" xml:space="preserve" class=""><g>
<g xmlns="http://www.w3.org/2000/svg">
	<g id="_x34__11_">
		<g>
			<path d="M124.172,305.975L342.365,87.781c20.079-20.079,20.079-52.644,0-72.722c-20.079-20.079-52.644-20.079-72.723,0     L15.062,269.639c-20.079,20.079-20.079,52.644,0,72.723l254.58,254.58c20.079,20.078,52.644,20.078,72.723,0     c20.079-20.079,20.079-52.644,0-72.723L124.172,305.975z M431.395,305.694l165.371-165.982c20.308-20.359,20.308-53.408,0-73.768     c-20.309-20.359-53.204-20.359-73.513,0L321.139,268.823c-20.309,20.359-17.047,35.266,3.032,55.345L523.253,545.47     c20.309,20.359,53.204,20.359,73.513,0c20.308-20.359,20.308-53.408,0-73.768L431.395,305.694z" fill="#fe1e02" data-original="#000000" style="" class=""/>
		</g>
	</g>
</g>
<g xmlns="http://www.w3.org/2000/svg">
</g>
<g xmlns="http://www.w3.org/2000/svg">
</g>
<g xmlns="http://www.w3.org/2000/svg">
</g>
<g xmlns="http://www.w3.org/2000/svg">
</g>
<g xmlns="http://www.w3.org/2000/svg">
</g>
<g xmlns="http://www.w3.org/2000/svg">
</g>
<g xmlns="http://www.w3.org/2000/svg">
</g>
<g xmlns="http://www.w3.org/2000/svg">
</g>
<g xmlns="http://www.w3.org/2000/svg">
</g>
<g xmlns="http://www.w3.org/2000/svg">
</g>
<g xmlns="http://www.w3.org/2000/svg">
</g>
<g xmlns="http://www.w3.org/2000/svg">
</g>
<g xmlns="http://www.w3.org/2000/svg">
</g>
<g xmlns="http://www.w3.org/2000/svg">
</g>
<g xmlns="http://www.w3.org/2000/svg">
</g>
</g></svg>
