<?xml version="1.0"?>
<svg xmlns="http://www.w3.org/2000/svg" xmlns:xlink="http://www.w3.org/1999/xlink" xmlns:svgjs="http://svgjs.com/svgjs" version="1.1" width="512" height="512" x="0" y="0" viewBox="0 0 410.307 410.307" style="enable-background:new 0 0 512 512" xml:space="preserve" class=""><g>
<g xmlns="http://www.w3.org/2000/svg">
	<path d="M273.77,293.642H139.016c-29.894,2.547-53.447,27.677-53.447,58.219c0,32.228,26.219,58.446,58.447,58.446   c24.284,0,45.151-14.89,53.965-36.018h16.824c8.814,21.127,29.68,36.018,53.965,36.018c32.228,0,58.447-26.219,58.447-58.446   C327.216,321.318,303.664,296.188,273.77,293.642z M158.078,361.71h-7.027v7.027c0,5.431-4.419,9.85-9.85,9.85   s-9.85-4.419-9.85-9.85v-7.027h-7.027c-5.431,0-9.85-4.419-9.85-9.85s4.418-9.85,9.85-9.85h7.027v-7.027   c0-5.432,4.418-9.851,9.85-9.851s9.85,4.419,9.85,9.851v7.027h7.027c5.431,0,9.85,4.419,9.85,9.85S163.509,361.71,158.078,361.71z    M273.019,377.689c-14.243,0-25.83-11.587-25.83-25.829c0-14.243,11.587-25.83,25.83-25.83s25.83,11.587,25.83,25.83   C298.848,366.103,287.261,377.689,273.019,377.689z" fill="#fe1e02" data-original="#000000" style="" class=""/>
	<path d="M322.216,99.199c-0.156,0-0.31,0.01-0.465,0.012c-1.865-28.128-13.942-53.078-34.494-70.88   C266.166,10.062,237.05,0,205.274,0c-31.776,0-60.893,10.062-81.984,28.331c-21.053,18.237-33.22,43.972-34.618,72.943   c-0.194-0.002-0.386-0.015-0.581-0.015c-26.584,0-48.212,21.628-48.212,48.212v25.658c0,26.584,21.628,48.211,48.212,48.211   c5.504,0,10.789-0.939,15.721-2.646c2.036,0.438,4.138,0.677,6.278,0.677c16.159,0,29.305-13.211,29.305-29.449v-61.759   c0-13.242-8.743-24.468-20.732-28.162C121.271,52.315,163.455,30,205.274,30c41.963,0,84.289,22.473,86.632,72.523   c-11.876,3.762-20.513,14.933-20.513,28.094v61.759c0,5.891,1.737,11.378,4.713,15.986c-9.026,6.266-22.19,10.97-41.261,13.185   c-6.124-12.683-19.116-21.453-34.118-21.453c-20.877,0-37.861,16.983-37.861,37.86s16.984,37.861,37.861,37.861   c16.078,0,29.838-10.079,35.318-24.246c21.262-2.255,38.408-7.298,51.931-15.27c7.19-4.238,13.335-9.26,18.444-15.037   c1.589-0.311,3.14-0.745,4.636-1.301c3.585,0.854,7.318,1.318,11.16,1.318c26.584,0,48.212-21.628,48.212-48.212V147.41   C370.428,120.826,348.8,99.199,322.216,99.199z" fill="#fe1e02" data-original="#000000" style="" class=""/>
</g>
<g xmlns="http://www.w3.org/2000/svg">
</g>
<g xmlns="http://www.w3.org/2000/svg">
</g>
<g xmlns="http://www.w3.org/2000/svg">
</g>
<g xmlns="http://www.w3.org/2000/svg">
</g>
<g xmlns="http://www.w3.org/2000/svg">
</g>
<g xmlns="http://www.w3.org/2000/svg">
</g>
<g xmlns="http://www.w3.org/2000/svg">
</g>
<g xmlns="http://www.w3.org/2000/svg">
</g>
<g xmlns="http://www.w3.org/2000/svg">
</g>
<g xmlns="http://www.w3.org/2000/svg">
</g>
<g xmlns="http://www.w3.org/2000/svg">
</g>
<g xmlns="http://www.w3.org/2000/svg">
</g>
<g xmlns="http://www.w3.org/2000/svg">
</g>
<g xmlns="http://www.w3.org/2000/svg">
</g>
<g xmlns="http://www.w3.org/2000/svg">
</g>
</g></svg>
