<?xml version="1.0"?>
<svg xmlns="http://www.w3.org/2000/svg" xmlns:xlink="http://www.w3.org/1999/xlink" xmlns:svgjs="http://svgjs.com/svgjs" version="1.1" width="512" height="512" x="0" y="0" viewBox="0 0 512 512" style="enable-background:new 0 0 512 512" xml:space="preserve" class=""><g><path xmlns="http://www.w3.org/2000/svg" d="m145.097656 366.902344c-10.804687-10.804688-20.40625-22.488282-28.753906-34.882813l-33.066406 33.0625 63.640625 63.640625 33.0625-33.066406c-12.394531-8.347656-24.078125-17.949219-34.882813-28.753906zm0 0" fill="#fe1e02" data-original="#000000" style="" class=""/><path xmlns="http://www.w3.org/2000/svg" d="m62.066406 386.296875-48.886718 48.882813c-8.5 8.5-13.179688 19.800781-13.179688 31.820312s4.679688 23.320312 13.179688 31.820312 19.800781 13.179688 31.820312 13.179688 23.320312-4.683594 31.820312-13.179688l48.882813-48.886718zm0 0" fill="#fe1e02" data-original="#000000" style="" class=""/><path xmlns="http://www.w3.org/2000/svg" d="m309.5 0c-111.835938 0-202.5 90.664062-202.5 202.5s90.664062 202.5 202.5 202.5 202.5-90.660156 202.5-202.5-90.660156-202.5-202.5-202.5zm0 360c-86.84375 0-157.5-70.652344-157.5-157.5s70.65625-157.5 157.5-157.5 157.5 70.65625 157.5 157.5-70.652344 157.5-157.5 157.5zm0 0" fill="#fe1e02" data-original="#000000" style="" class=""/><path xmlns="http://www.w3.org/2000/svg" d="m309.5 75c-70.304688 0-127.5 57.195312-127.5 127.5s57.195312 127.5 127.5 127.5 127.5-57.195312 127.5-127.5-57.195312-127.5-127.5-127.5zm15 219.707031h-30v-30h30zm21.164062-101.765625-21.164062 23.671875v18.09375h-30v-29.550781l28.804688-32.214844c3.046874-3.40625 4.722656-7.792968 4.722656-12.351562 0-10.21875-8.308594-18.53125-18.527344-18.53125s-18.527344 8.3125-18.527344 18.53125h-30c0-26.761719 21.769532-48.53125 48.527344-48.53125s48.527344 21.769531 48.527344 48.53125c.003906 11.953125-4.386719 23.441406-12.363282 32.351562zm0 0" fill="#fe1e02" data-original="#000000" style="" class=""/></g></svg>
