<?xml version="1.0"?>
<svg xmlns="http://www.w3.org/2000/svg" xmlns:xlink="http://www.w3.org/1999/xlink" xmlns:svgjs="http://svgjs.com/svgjs" version="1.1" width="512" height="512" x="0" y="0" viewBox="0 0 512 512" style="enable-background:new 0 0 512 512" xml:space="preserve"><g>
<g xmlns="http://www.w3.org/2000/svg">
	<g>
		<g>
			<circle cx="256" cy="51.2" r="51.2" fill="#7f7f7f" data-original="#000000" style=""/>
			<path d="M341.333,119.467H170.667c-23.564,0-42.667,19.103-42.667,42.667v128c0,14.138,11.461,25.6,25.6,25.6     c14.138,0,25.6-11.461,25.6-25.6V179.2h17.067v307.2c0,14.138,11.462,25.6,25.6,25.6s25.6-11.461,25.6-25.6V315.733h17.067V486.4     c0,14.138,11.462,25.6,25.6,25.6s25.6-11.461,25.6-25.6V179.2H332.8v110.933c0,14.138,11.462,25.6,25.6,25.6     s25.6-11.461,25.6-25.6v-128C384,138.569,364.898,119.467,341.333,119.467z" fill="#7f7f7f" data-original="#000000" style=""/>
		</g>
	</g>
</g>
<g xmlns="http://www.w3.org/2000/svg">
</g>
<g xmlns="http://www.w3.org/2000/svg">
</g>
<g xmlns="http://www.w3.org/2000/svg">
</g>
<g xmlns="http://www.w3.org/2000/svg">
</g>
<g xmlns="http://www.w3.org/2000/svg">
</g>
<g xmlns="http://www.w3.org/2000/svg">
</g>
<g xmlns="http://www.w3.org/2000/svg">
</g>
<g xmlns="http://www.w3.org/2000/svg">
</g>
<g xmlns="http://www.w3.org/2000/svg">
</g>
<g xmlns="http://www.w3.org/2000/svg">
</g>
<g xmlns="http://www.w3.org/2000/svg">
</g>
<g xmlns="http://www.w3.org/2000/svg">
</g>
<g xmlns="http://www.w3.org/2000/svg">
</g>
<g xmlns="http://www.w3.org/2000/svg">
</g>
<g xmlns="http://www.w3.org/2000/svg">
</g>
</g></svg>
