<?xml version="1.0"?>
<svg xmlns="http://www.w3.org/2000/svg" xmlns:xlink="http://www.w3.org/1999/xlink" xmlns:svgjs="http://svgjs.com/svgjs" version="1.1" width="512" height="512" x="0" y="0" viewBox="0 0 512 512" style="enable-background:new 0 0 512 512" xml:space="preserve" class=""><g><g xmlns="http://www.w3.org/2000/svg"><path d="m346 151c-24.813 0-45 20.187-45 45 0 8.284 6.716 15 15 15s15-6.716 15-15c0-8.271 6.729-15 15-15s15 6.729 15 15c0 6.322-3.994 12-9.939 14.129-11.999 4.299-20.061 15.747-20.061 28.49v2.381c0 8.284 6.716 15 15 15s15-6.716 15-15v-2.381c0-.108.073-.209.178-.247 17.838-6.39 29.822-23.417 29.822-42.372 0-24.813-20.187-45-45-45z" fill="#fe1e02" data-original="#000000" style="" class=""/><circle cx="346" cy="286" r="15" fill="#fe1e02" data-original="#000000" style="" class=""/><path d="m346 91c-15.772 0-30.918 2.728-45 7.722v-53.722c0-24.813-20.187-45-45-45h-180c-24.813 0-45 20.187-45 45v422c0 24.813 20.187 45 45 45h180c24.813 0 45-20.187 45-45v-112.457c4.218.614 8.418 1.434 12.585 2.476 10.561 2.642 21.467 3.981 32.415 3.981 74.439 0 135-60.561 135-135s-60.561-135-135-135zm-90 391h-180c-8.271 0-15-6.729-15-15v-422c0-8.271 6.729-15 15-15h180c8.271 0 15 6.729 15 15v68.806c-36.154 24.247-60 65.487-60 112.194 0 10.947 1.339 21.853 3.98 32.415 7.397 29.574 3.975 60.854-9.638 88.081-.006.012-.049.098-.055.11-2.869 5.775-1.688 12.72 2.878 17.275 4.534 4.522 11.53 5.681 17.338 2.777 14.323-7.161 29.768-11.498 45.496-12.927v113.269c.001 8.271-6.728 15-14.999 15zm90-151c-8.496 0-16.953-1.038-25.136-3.084-25.077-6.271-51.568-6.296-76.85.075 6.311-25.044 6.421-51.461.069-76.854-2.045-8.184-3.083-16.641-3.083-25.137 0-57.897 47.103-105 105-105s105 47.103 105 105-47.103 105-105 105z" fill="#fe1e02" data-original="#000000" style="" class=""/><path d="m211 76c0-8.284-6.716-15-15-15h-60c-8.284 0-15 6.716-15 15s6.716 15 15 15h60c8.284 0 15-6.716 15-15z" fill="#fe1e02" data-original="#000000" style="" class=""/><circle cx="166" cy="437" r="15" fill="#fe1e02" data-original="#000000" style="" class=""/></g></g></svg>
